<?xml version="1.0" encoding="UTF-8"?>
<svg xmlns="http://www.w3.org/2000/svg" viewBox="0 0 482.42 116.35">
  <defs>
    <style>
      .cls-1 {
        fill: #af3023;
      }

      .cls-1, .cls-2 {
        stroke-width: 0px;
      }

      .cls-2 {
        fill: #fff;
      }
    </style>
  </defs>
  <g>
    <g id="Group-8">
      <path id="Fill-1" class="cls-2" d="m37.53,76.65h24.11l-3.03-26.42c-.39-2.79-.6-5.29-.65-7.5-.05-2.21-.07-3.75-.07-4.62v-2.16h-.87c-.19.48-.75,1.83-1.66,4.04-.92,2.21-2.34,5.24-4.26,9.09l-13.57,27.58Zm25.55,10.68h-30.74l-5.63,11.55c-.48,1.06-.84,1.95-1.08,2.67-.24.73-.36,1.42-.36,2.09,0,1.35.63,2.33,1.88,2.96,1.25.62,3.27.99,6.06,1.08l-1.3,6.64H0l1.15-6.64c1.54-.19,2.91-.43,4.11-.73,1.21-.29,2.29-.79,3.25-1.51.96-.72,1.87-1.66,2.74-2.81.87-1.15,1.83-2.7,2.89-4.63L57.45,14h18.04l12.56,84.01c.29,1.83.6,3.32.94,4.48.34,1.15.8,2.09,1.37,2.81.58.73,1.32,1.25,2.24,1.59.91.34,2.09.6,3.54.79l-1.3,6.64h-41l1.16-6.64c3.94-.19,6.54-.73,7.79-1.58,1.25-.87,1.88-2.32,1.88-4.34v-.72c0-.19-.05-.62-.15-1.3l-1.44-12.41h0Z"/>
      <path id="Fill-3" class="cls-2" d="m115.48,61.06c.29-1.44.44-2.69.44-3.75,0-2.4-.75-4.14-2.24-5.2-1.49-1.06-4.06-1.64-7.72-1.73l1.3-5.63c2.5-1.25,5.27-2.36,8.3-3.32,3.03-.96,6.33-1.44,9.89-1.44,3.37,0,5.94,1.22,7.73,3.68,1.78,2.45,2.67,6.14,2.67,11.04,0,1.73-.14,3.66-.43,5.77,1.35-2.98,2.86-5.8,4.54-8.44,1.68-2.65,3.49-4.93,5.41-6.85,1.92-1.93,3.99-3.44,6.21-4.55,2.22-1.1,4.52-1.66,6.93-1.66,1.35,0,2.5.1,3.46.29.96.19,2.02.58,3.18,1.15l-5.2,21.8c-1.45-.58-2.75-.98-3.9-1.22-1.15-.24-2.5-.36-4.04-.36-2.41,0-4.65.34-6.71,1.01-2.07.68-3.97,1.88-5.7,3.61-1.74,1.73-3.28,4.12-4.62,7.14-1.35,3.03-2.5,6.91-3.47,11.62l-6.49,30.32h-20.93l11.4-53.27"/>
      <path id="Fill-4" class="cls-2" d="m207.72,38.97c5.58,0,10.13.65,13.64,1.95,3.51,1.3,6.14,2.67,7.86,4.11l-3.03,15.73h-14.43v-2.45c0-3.28-.41-5.78-1.23-7.51-.82-1.74-2.53-2.6-5.13-2.6-2.89,0-5.51,1.11-7.87,3.32-2.36,2.22-4.38,5.18-6.06,8.88-1.68,3.71-3.01,7.94-3.97,12.7-.97,4.77-1.44,9.69-1.44,14.8,0,10.59,4.28,15.88,12.85,15.88,3.85,0,7.05-.64,9.6-1.95,2.55-1.3,5.17-2.96,7.87-4.98l4.62,6.65c-1.35,1.63-2.94,3.22-4.77,4.76-1.83,1.54-3.92,2.91-6.28,4.11-2.36,1.2-5.01,2.17-7.94,2.89-2.94.72-6.23,1.08-9.89,1.08-8.85,0-15.71-2.57-20.57-7.72-4.86-5.15-7.29-12.49-7.29-22.01,0-5.59.99-11.22,2.96-16.9,1.97-5.67,4.81-10.8,8.52-15.37,3.7-4.57,8.25-8.27,13.64-11.12,5.39-2.83,11.5-4.26,18.33-4.26"/>
      <path id="Fill-5" class="cls-2" d="m275.14,100.04c-3.28,5-7.1,8.97-11.48,11.91-4.38,2.93-9.36,4.4-14.94,4.4-5.2,0-9-1.35-11.4-4.04s-3.61-6.3-3.61-10.82c0-2.32.29-4.77.87-7.36l7.36-31.18c.29-1.06.48-2.05.58-2.96.09-.92.14-1.76.14-2.53,0-2.6-.77-4.42-2.31-5.48s-4.04-1.59-7.5-1.59l1.15-5.63c2.31-1.15,5.03-2.24,8.16-3.25,3.12-1.01,6.52-1.51,10.18-1.51,3.95,0,6.97,1.01,9.1,3.03,2.11,2.02,3.18,5.1,3.18,9.24,0,1.07-.1,2.29-.29,3.68-.19,1.4-.44,2.72-.72,3.97l-7.37,31.91c-.39,1.63-.58,3.18-.58,4.62,0,1.73.39,2.95,1.15,3.68.77.72,1.92,1.08,3.47,1.08,1.44,0,2.93-.46,4.47-1.37,1.54-.91,3.08-2.09,4.62-3.54,1.54-1.44,3.03-3.13,4.47-5.05,1.44-1.92,2.79-3.89,4.04-5.91l9.38-44.46h20.65l-11.12,53.56c-.48,2.4-.72,4.24-.72,5.48,0,1.83.5,3.13,1.52,3.89,1.01.77,2.77,1.16,5.27,1.16.58,0,1.2-.03,1.88-.07.67-.05,1.39-.12,2.17-.21l.43,5.91c-2.98,1.64-6.01,2.89-9.1,3.75-3.08.87-6.35,1.3-9.81,1.3-4.62,0-8.01-1.15-10.18-3.46-2.16-2.31-3.25-5.63-3.25-9.96,0-.38.03-.82.07-1.3.05-.48.07-.77.07-.87"/>
      <path id="Fill-6" class="cls-2" d="m337.49,116.35c-7.02,0-12.54-.77-16.53-2.31-3.99-1.54-6.91-2.98-8.73-4.33l2.45-15.59h13.14v.58c0,4.04.87,7.12,2.6,9.24,1.73,2.12,4.72,3.18,8.95,3.18,3.56,0,6.66-.7,9.31-2.09,2.64-1.39,3.97-4.06,3.97-8.01,0-2.69-.82-4.72-2.46-6.07-1.64-1.34-3.95-2.54-6.93-3.6l-6.21-2.17c-5-1.63-8.98-4.04-11.91-7.22-2.94-3.18-4.41-7.65-4.41-13.43,0-4.14.8-7.81,2.38-11.04,1.59-3.22,3.8-5.89,6.64-8.01,2.84-2.11,6.14-3.73,9.89-4.84,3.76-1.1,7.8-1.66,12.13-1.66,6.06,0,10.99.62,14.8,1.88,3.8,1.25,6.81,2.5,9.02,3.75l-2.6,15.3h-12.7c-.1-3.66-.89-6.57-2.38-8.73-1.49-2.16-4.26-3.25-8.3-3.25-3.18,0-5.91.85-8.22,2.53-2.31,1.69-3.47,4.12-3.47,7.28,0,2.02.7,3.66,2.09,4.91,1.4,1.25,3.49,2.36,6.28,3.32l6.35,2.17c6.35,2.12,11.02,4.81,14,8.08,2.98,3.27,4.47,7.79,4.47,13.57,0,8.18-2.98,14.65-8.95,19.42-5.97,4.77-14.19,7.14-24.68,7.14"/>
      <path id="Fill-7" class="cls-2" d="m434.3,65.82c4.26,17.99,4.45,35.47,1.35,50.44h11.34c1.87-13.47,1.22-28.61-2.45-44.12-7.2-30.39-32.81-60.99-52.94-72.14,18.95,10.49,35.52,35.5,42.7,65.82"/>
    </g>
    <polyline id="Fill-9" class="cls-1" points="482.42 38.02 460.1 39.14 469.02 42.41 390.24 67.38 395.78 81.08 469.73 44.19 465.63 52.83 482.42 38.02"/>
  </g>
</svg>