<?xml version="1.0" encoding="UTF-8"?>
<svg id="Layer_2" data-name="Layer 2" xmlns="http://www.w3.org/2000/svg" viewBox="0 0 55.09 54.94">
  <defs>
    <style>
      .cls-1 {
        fill: none;
        stroke: #fff;
        stroke-miterlimit: 10;
        stroke-width: 1.5px;
      }
    </style>
  </defs>
  <g id="Main_layout" data-name="Main layout">
    <path class="cls-1" d="m54.34,27.47c0,14.76-12,26.72-26.79,26.72S.75,42.22.75,27.47,12.75.75,27.54.75s26.79,11.96,26.79,26.72Z"/>
    <path class="cls-1" d="m47.07,27.47s-8.74,11.79-19.52,11.79-19.52-11.79-19.52-11.79c0,0,8.74-11.79,19.52-11.79s19.52,11.79,19.52,11.79Z"/>
    <path class="cls-1" d="m32.52,27.23c0,2.7-2.19,4.89-4.89,4.89s-4.89-2.19-4.89-4.89,2.19-4.89,4.89-4.89,4.89,2.19,4.89,4.89Z"/>
    <path class="cls-1" d="m35.99,27.23c0,4.62-3.74,8.36-8.36,8.36s-8.36-3.74-8.36-8.36,3.74-8.36,8.36-8.36,8.36,3.74,8.36,8.36Z"/>
  </g>
</svg>