<?xml version="1.0" encoding="UTF-8"?>
<svg id="Layer_2" data-name="Layer 2" xmlns="http://www.w3.org/2000/svg" viewBox="0 0 55.02 54.94">
  <defs>
    <style>
      .cls-1, .cls-2 {
        fill: #fff;
      }

      .cls-3 {
        stroke-width: 1.5px;
      }

      .cls-3, .cls-4 {
        fill: none;
      }

      .cls-3, .cls-4, .cls-2 {
        stroke: #fff;
        stroke-miterlimit: 10;
      }

      .cls-4, .cls-2 {
        stroke-width: 1.31px;
      }
    </style>
  </defs>
  <g id="Layer_2-2" data-name="Layer 2">
    <path class="cls-1" d="M27.5,1.5c14.34,0,26,11.65,26,25.97v.58c-.3,14.05-11.85,25.39-25.99,25.39S1.5,41.79,1.5,27.47,13.17,1.5,27.5,1.5M27.5,0C12.32,0,0,12.29,0,27.47s12.33,27.47,27.52,27.47,27.5-12.29,27.5-27.47h-.01C55.01,12.3,42.69,0,27.5,0h0Z"/>
    <line class="cls-3" x1="30.7" y1="18.95" x2="43.6" y2="18.95"/>
    <line class="cls-3" x1="11.35" y1="18.95" x2="24.32" y2="18.95"/>
    <line class="cls-3" x1="30.7" y1="28.42" x2="43.6" y2="28.42"/>
    <line class="cls-3" x1="21.19" y1="28.42" x2="24.32" y2="28.42"/>
    <line class="cls-3" x1="11.35" y1="28.42" x2="14.82" y2="28.42"/>
    <line class="cls-3" x1="11.35" y1="37.89" x2="43.6" y2="37.89"/>
    <line class="cls-3" x1="36.95" y1="12.3" x2="36.95" y2="44.55"/>
    <line class="cls-3" x1="27.48" y1="31.61" x2="27.48" y2="44.55"/>
    <line class="cls-3" x1="27.48" y1="22.19" x2="27.48" y2="25.24"/>
    <line class="cls-3" x1="27.48" y1="12.3" x2="27.48" y2="15.82"/>
    <line class="cls-3" x1="18.01" y1="31.61" x2="18.01" y2="44.55"/>
    <line class="cls-3" x1="18.01" y1="12.3" x2="18.01" y2="25.24"/>
    <circle class="cls-4" cx="18.01" cy="28.42" r="3.19"/>
    <circle class="cls-4" cx="27.51" cy="28.42" r="3.19"/>
    <circle class="cls-4" cx="27.51" cy="19" r="3.19"/>
    <circle class="cls-2" cx="36.95" cy="28.42" r="3.19"/>
    <circle class="cls-2" cx="36.95" cy="37.89" r="3.19"/>
  </g>
</svg>